<svg width="40" height="40" viewBox="0 0 40 40" fill="none" xmlns="http://www.w3.org/2000/svg">
<path fill-rule="evenodd" clip-rule="evenodd" d="M9.64599 23.366C9.71894 23.3906 9.79258 23.408 9.86614 23.4187C9.94637 23.6073 10.05 23.8512 10.171 24.1364C10.4661 24.8324 10.8637 25.7738 11.2742 26.7559C12.1113 28.7587 12.9556 30.8232 13.1421 31.4142C13.373 32.1447 13.617 32.6414 13.8834 32.9805C14.0211 33.1558 14.1804 33.3089 14.3668 33.4248C14.4606 33.4832 14.5598 33.5311 14.6632 33.5667C14.6678 33.5683 14.6723 33.5698 14.6769 33.5713C15.2103 33.7727 15.6965 33.6888 16.001 33.5863C16.1639 33.5314 16.2957 33.4651 16.3891 33.4114C16.4367 33.384 16.477 33.3585 16.5091 33.3369L16.5166 33.3318L21.227 30.3943L26.6678 34.5657C26.7482 34.6272 26.8357 34.6788 26.9285 34.7193C27.5821 35.0046 28.2151 35.104 28.8105 35.0227C29.4049 34.9415 29.8768 34.6918 30.2281 34.4107C30.5721 34.1355 30.8054 33.8272 30.9506 33.5982C31.0247 33.4812 31.0805 33.3777 31.1197 33.2985C31.1395 33.2587 31.1553 33.2243 31.1676 33.1968L31.1833 33.1604L31.1892 33.1462L31.1917 33.1401L31.1928 33.1373L31.1939 33.1347C31.2225 33.0632 31.2444 32.9892 31.2594 32.9137L36.2264 7.87123C36.2423 7.79114 36.2503 7.70969 36.2503 7.62804C36.2503 6.89468 35.974 6.19735 35.3242 5.77419C34.7689 5.41253 34.1503 5.39696 33.7594 5.42663C33.3376 5.45865 32.9481 5.56276 32.6867 5.64595C32.5507 5.68925 32.4367 5.73102 32.3544 5.76289C32.3131 5.77891 32.2792 5.79265 32.254 5.80313L32.235 5.81111L4.37885 16.7387L4.37524 16.74C4.35748 16.7464 4.3347 16.7549 4.30761 16.7655C4.25367 16.7865 4.1814 16.8161 4.09698 16.8543C3.93234 16.929 3.70137 17.0456 3.46436 17.2079C3.08571 17.4672 2.21489 18.1773 2.36153 19.3495C2.47851 20.2846 3.11914 20.8589 3.50946 21.1351C3.72378 21.2868 3.92739 21.3952 4.07567 21.4658C4.14446 21.4986 4.28729 21.5566 4.34926 21.5818L4.3649 21.5881L9.64599 23.366ZM33.2099 8.1131L33.206 8.11479C33.1922 8.12082 33.1782 8.1266 33.1641 8.13212L5.27409 19.073C5.25953 19.0787 5.24486 19.0841 5.23009 19.0893L5.21457 19.0952C5.19673 19.1021 5.16669 19.1143 5.12898 19.1314C5.10761 19.1411 5.0853 19.1517 5.06255 19.163C5.0938 19.1806 5.12371 19.1959 5.15029 19.2085C5.1758 19.2207 5.19527 19.229 5.20592 19.2334L10.4436 20.9967C10.5395 21.029 10.6289 21.0717 10.7109 21.1233L28.0055 10.9991L28.0217 10.9896C28.0343 10.9821 28.0509 10.9725 28.0707 10.9613C28.1101 10.9391 28.1641 10.9095 28.2285 10.8767C28.3485 10.8156 28.5405 10.7249 28.7569 10.6581C28.9075 10.6115 29.3516 10.4804 29.8318 10.6344C30.1281 10.7294 30.435 10.9338 30.6345 11.28C30.7337 11.4519 30.7865 11.6247 30.8121 11.7829C30.88 12.032 30.8693 12.278 30.8161 12.4904C30.7015 12.9479 30.3801 13.3048 30.0875 13.5777C29.837 13.8118 26.5947 16.9382 23.3961 20.0245C21.801 21.5635 20.2222 23.0874 19.0421 24.2266L18.267 24.9748L28.0536 32.4779C28.278 32.5582 28.4107 32.5541 28.4721 32.5457C28.5453 32.5357 28.6051 32.5076 28.6663 32.4586C28.7346 32.4039 28.7945 32.3301 28.8392 32.2596L28.841 32.2567L33.6584 7.96836C33.5869 7.98554 33.5147 8.00601 33.445 8.02819C33.3661 8.0533 33.301 8.07723 33.2578 8.09395C33.2365 8.10223 33.2211 8.10851 33.2128 8.11197L33.2099 8.1131ZM19.1078 28.7696L17.1553 27.2727L16.6822 30.2822L19.1078 28.7696ZM15.3642 24.3023L17.3058 22.4279C18.486 21.2887 20.0649 19.7646 21.6602 18.2254L23.281 16.6617L12.4143 23.023L12.4726 23.1605C12.7688 23.859 13.1682 24.8045 13.5808 25.7918C13.8894 26.5301 14.212 27.3074 14.5059 28.0271L14.9776 25.0264C15.0231 24.7371 15.1644 24.4866 15.3642 24.3023Z" fill="white"/>
</svg>
