<svg width="67" height="66" viewBox="0 0 67 66" fill="none" xmlns="http://www.w3.org/2000/svg">
<g clip-path="url(#clip0_6_120)">
<path fill-rule="evenodd" clip-rule="evenodd" d="M22.3333 11V13.2H6.7C4.92305 13.2 3.21888 13.8954 1.96238 15.1331C0.705891 16.3708 0 18.0496 0 19.8L0 59.4C0 61.1504 0.705891 62.8292 1.96238 64.0669C3.21888 65.3046 4.92305 66 6.7 66H60.3C62.077 66 63.7811 65.3046 65.0376 64.0669C66.2941 62.8292 67 61.1504 67 59.4V19.8C67 18.0496 66.2941 16.3708 65.0376 15.1331C63.7811 13.8954 62.077 13.2 60.3 13.2H44.6667V11C44.6667 8.08262 43.4902 5.28473 41.396 3.22183C39.3019 1.15893 36.4616 0 33.5 0C30.5384 0 27.6981 1.15893 25.604 3.22183C23.5098 5.28473 22.3333 8.08262 22.3333 11ZM33.5 4.4C31.723 4.4 30.0189 5.09536 28.7624 6.3331C27.5059 7.57084 26.8 9.24957 26.8 11V13.2H40.2V11C40.2 9.24957 39.4941 7.57084 38.2376 6.3331C36.9811 5.09536 35.277 4.4 33.5 4.4ZM2.948 32.4148C11.2679 39.9819 22.1762 44.184 33.5 44.184C44.8238 44.184 55.7321 39.9819 64.052 32.4148L61.0147 29.1852C53.5208 35.9977 43.6974 39.7805 33.5 39.7805C23.3026 39.7805 13.4792 35.9977 5.98533 29.1852L2.948 32.4148Z" fill="#05386B"/>
<path d="M11.744 55.448L9.524 59H8.264L10.664 55.256C10.36 55.152 10.072 55.008 9.8 54.824C9.536 54.64 9.32 54.388 9.152 54.068C8.984 53.748 8.9 53.336 8.9 52.832C8.9 52.056 9.168 51.464 9.704 51.056C10.24 50.64 11.04 50.432 12.104 50.432H14.504V59H13.424V55.448H11.744ZM12.128 51.356C11.672 51.356 11.288 51.408 10.976 51.512C10.664 51.616 10.424 51.78 10.256 52.004C10.096 52.228 10.016 52.52 10.016 52.88C10.016 53.408 10.192 53.816 10.544 54.104C10.896 54.392 11.44 54.536 12.176 54.536H13.424V51.356H12.128Z" fill="white"/>
<path d="M16.8281 59V50.432H21.9161V51.38H17.9081V54.056H19.1801C20.0361 54.056 20.7001 54.164 21.1721 54.38C21.6441 54.588 21.9721 54.876 22.1561 55.244C22.3401 55.604 22.4321 56.02 22.4321 56.492C22.4321 57.012 22.3281 57.46 22.1201 57.836C21.9201 58.212 21.5921 58.5 21.1361 58.7C20.6801 58.9 20.0801 59 19.3361 59H16.8281ZM19.2281 58.076C19.9961 58.076 20.5361 57.948 20.8481 57.692C21.1601 57.428 21.3161 57.028 21.3161 56.492C21.3161 56.124 21.2401 55.832 21.0881 55.616C20.9441 55.392 20.7041 55.232 20.3681 55.136C20.0401 55.04 19.6001 54.992 19.0481 54.992H17.9081V58.076H19.2281ZM24.2229 50.432H25.2309V55.136C25.2309 55.336 25.2269 55.556 25.2189 55.796C25.2189 56.028 25.2149 56.26 25.2069 56.492C25.1989 56.724 25.1869 56.932 25.1709 57.116C25.1629 57.292 25.1549 57.428 25.1469 57.524H25.1949L29.9109 50.432H31.1109V59H30.1029V54.344C30.1029 54.128 30.1069 53.896 30.1149 53.648C30.1229 53.392 30.1309 53.148 30.1389 52.916C30.1549 52.676 30.1669 52.464 30.1749 52.28C30.1829 52.096 30.1909 51.96 30.1989 51.872H30.1509L25.4229 59H24.2229V50.432ZM35.6898 50.432C36.8098 50.432 37.6258 50.652 38.1378 51.092C38.6498 51.532 38.9058 52.152 38.9058 52.952C38.9058 53.304 38.8458 53.644 38.7258 53.972C38.6138 54.292 38.4258 54.58 38.1618 54.836C37.8978 55.092 37.5458 55.296 37.1058 55.448C36.6658 55.592 36.1258 55.664 35.4858 55.664H34.5018V59H33.4218V50.432H35.6898ZM35.5938 51.356H34.5018V54.74H35.3658C35.9098 54.74 36.3618 54.684 36.7218 54.572C37.0818 54.452 37.3498 54.264 37.5258 54.008C37.7018 53.752 37.7898 53.416 37.7898 53C37.7898 52.448 37.6138 52.036 37.2618 51.764C36.9098 51.492 36.3538 51.356 35.5938 51.356ZM42.7451 54.596L39.4211 50.432H40.6211L43.8971 54.584V50.432H44.9291V54.584L48.2051 50.432H49.4051L46.0811 54.584L49.5131 59H48.2771L44.9291 54.656V59H43.8971V54.656L40.5371 59H39.3011L42.7451 54.596ZM56.0713 59L55.0393 56.348H51.6433L50.6233 59H49.5312L52.8793 50.396H53.8513L57.1873 59H56.0713ZM53.7553 52.796C53.7313 52.732 53.6913 52.616 53.6353 52.448C53.5793 52.28 53.5233 52.108 53.4673 51.932C53.4193 51.748 53.3793 51.608 53.3473 51.512C53.3073 51.672 53.2633 51.836 53.2153 52.004C53.1753 52.164 53.1313 52.312 53.0833 52.448C53.0433 52.584 53.0073 52.7 52.9753 52.796L52.0033 55.388H54.7153L53.7553 52.796Z" fill="#329BD6"/>
</g>
<defs>
<clipPath id="clip0_6_120">
<rect width="67" height="66" fill="white"/>
</clipPath>
</defs>
</svg>
