<svg width="40" height="40" viewBox="0 0 40 40" fill="none" xmlns="http://www.w3.org/2000/svg">
<path fill-rule="evenodd" clip-rule="evenodd" d="M39.0082 28.1083C38.1018 26.2824 36.9073 24.6146 35.4708 23.1688C34.982 22.6005 34.4088 22.0397 33.9613 21.6019L33.8988 21.5408C33.6681 21.3149 33.4773 21.1274 33.3212 20.9658C35.2855 18.2346 36.9666 15.3099 38.3383 12.237L38.3937 12.1131L38.4324 11.9829C38.6127 11.3781 38.8203 10.228 38.0858 9.18861C37.3267 8.11431 36.111 7.92057 35.297 7.92057H31.5519C30.7711 7.88477 29.998 8.09584 29.343 8.52496C28.683 8.95732 28.1781 9.58796 27.9004 10.3252C27.0938 12.2463 26.0846 14.0737 24.8912 15.7766V11.3878C24.8912 10.8205 24.8378 9.87149 24.2303 9.07048C23.503 8.11142 22.4512 7.92057 21.7211 7.92057H15.7785C15.0128 7.90286 14.2682 8.17662 13.696 8.68765C13.11 9.21098 12.7508 9.94201 12.6948 10.7257L12.6895 10.8V10.8744C12.6895 11.6835 13.0101 12.2804 13.2662 12.6557C13.3809 12.8238 13.5036 12.9768 13.5811 13.0734L13.5989 13.0957C13.6816 13.1987 13.7367 13.2675 13.7921 13.3428C13.9377 13.5408 14.1471 13.8461 14.2063 14.6362V17.0912C13.1818 15.407 12.1011 13.1659 11.2879 10.7724L11.2754 10.7357L11.2616 10.6994C11.0589 10.1684 10.7337 9.39572 10.0823 8.80444C9.32145 8.11368 8.42148 7.92057 7.60302 7.92057H3.80311C2.97509 7.92057 1.97688 8.11427 1.23205 8.89999C0.499611 9.67263 0.416656 10.5984 0.416656 11.0907V11.3126L0.463388 11.5295C1.5159 16.4147 3.68459 20.9895 6.79909 24.8961C8.21112 27.1229 10.1245 28.9894 12.3869 30.3459C14.6854 31.7241 17.2785 32.5365 19.9525 32.7162L20.0222 32.7209H20.0921C21.3019 32.7209 22.563 32.6164 23.5113 31.9845C24.7906 31.132 24.8912 29.8226 24.8912 29.1702V27.2736C25.2195 27.5391 25.6268 27.8963 26.1255 28.3764C26.7283 28.9799 27.2083 29.5026 27.62 29.959L27.8397 30.2033L27.841 30.2047C28.1607 30.5607 28.4754 30.9111 28.7619 31.1991C29.122 31.5612 29.566 31.9601 30.1241 32.2549C30.7285 32.574 31.3628 32.7183 32.0366 32.7183H35.8391C36.6402 32.7183 37.7892 32.5288 38.597 31.5923C39.4774 30.5716 39.4101 29.3206 39.1333 28.4217L39.0835 28.2599L39.0082 28.1083ZM29.4762 28.2844C29.0481 27.8098 28.532 27.2474 27.8797 26.5951L27.8743 26.5898C25.6141 24.4107 24.5581 24.031 23.8113 24.031C23.4141 24.031 22.9747 24.0756 22.6895 24.4309C22.5549 24.5986 22.4842 24.8008 22.4445 25.0117C22.4049 25.2222 22.3912 25.4693 22.3912 25.7508V29.1702C22.3912 29.5949 22.3214 29.7732 22.1249 29.9041C21.8633 30.0785 21.3041 30.2198 20.1061 30.2209C17.8322 30.0658 15.6273 29.3739 13.6725 28.2018C11.7136 27.0273 10.0618 25.4042 8.85311 23.4662L8.83995 23.4451L8.82439 23.4257C5.92228 19.8136 3.90003 15.5762 2.91716 11.0485C2.92248 10.8302 2.96978 10.7007 3.04639 10.6199C3.12534 10.5366 3.31663 10.4206 3.80311 10.4206H7.60302C8.02573 10.4206 8.24449 10.5125 8.40194 10.6555C8.58043 10.8175 8.73525 11.0927 8.92333 11.584C9.85602 14.3273 11.1173 16.8928 12.3117 18.7792C12.9086 19.722 13.4961 20.5068 14.0255 21.0614C14.2897 21.3382 14.5489 21.5677 14.7962 21.7308C15.0355 21.8886 15.3069 22.0131 15.5859 22.0131C15.7332 22.0131 15.9055 21.998 16.0713 21.9246C16.2497 21.8456 16.3882 21.7139 16.486 21.5375C16.6589 21.2255 16.7063 20.7633 16.7063 20.1578V14.5517L16.7055 14.5385C16.6191 13.1746 16.2073 12.4074 15.8063 11.862C15.7185 11.7424 15.6318 11.6345 15.556 11.54L15.5352 11.5141C15.4519 11.4103 15.3857 11.3264 15.3313 11.2466C15.2315 11.1004 15.1928 10.9985 15.1897 10.8893C15.2027 10.7596 15.2638 10.6393 15.3612 10.5523C15.4624 10.462 15.5947 10.4149 15.7303 10.4206H21.7211C22.0645 10.4206 22.1802 10.5044 22.2384 10.5811C22.3206 10.6895 22.3912 10.9149 22.3912 11.3878V18.9355C22.3912 19.8321 22.8044 20.439 23.4047 20.439C24.0953 20.439 24.5932 20.0199 25.4637 19.1493L25.4783 19.1348L25.4913 19.1189C27.4426 16.7393 29.0375 14.0883 30.2245 11.2491L30.2321 11.2278C30.3213 10.9769 30.4902 10.7621 30.713 10.6162C30.9357 10.4702 31.2001 10.4012 31.4657 10.4196L31.4801 10.4206H35.297C35.8175 10.4206 35.9888 10.553 36.0442 10.6314C36.1031 10.7148 36.1441 10.8934 36.0439 11.2438C34.6754 14.3044 32.9831 17.2097 30.9967 19.9106L30.9842 19.9297C30.7913 20.2246 30.5798 20.5509 30.5491 20.9256C30.5163 21.328 30.6904 21.6938 30.9951 22.0858C31.217 22.4141 31.6749 22.8622 32.1393 23.3169L32.1831 23.3597C32.6701 23.8364 33.1977 24.3527 33.6212 24.8526L33.6325 24.8659L33.6449 24.8782C34.9074 26.1375 35.9571 27.5933 36.7534 29.1886C36.8804 29.623 36.8026 29.845 36.7039 29.9595C36.5882 30.0935 36.3294 30.2183 35.8391 30.2183H32.0366C31.7397 30.2183 31.5105 30.1598 31.2915 30.0441C31.0633 29.9236 30.8286 29.7319 30.5343 29.4361C30.2973 29.1978 30.0383 28.9095 29.7224 28.5579C29.644 28.4708 29.5621 28.3795 29.4762 28.2844Z" fill="white"/>
</svg>
