<svg width="40" height="40" viewBox="0 0 40 40" fill="none" xmlns="http://www.w3.org/2000/svg">
<path fill-rule="evenodd" clip-rule="evenodd" d="M17.3098 13.9281C16.9236 13.6964 16.4427 13.6904 16.0508 13.9122C15.6589 14.1341 15.4167 14.5497 15.4167 15V25C15.4167 25.4503 15.6589 25.8659 16.0508 26.0877C16.4427 26.3096 16.9236 26.3036 17.3098 26.0719L25.6431 21.0719C26.0196 20.846 26.25 20.4391 26.25 20C26.25 19.5609 26.0196 19.154 25.6431 18.9281L17.3098 13.9281ZM22.5704 20L17.9167 22.7923V17.2077L22.5704 20Z" fill="white"/>
<path fill-rule="evenodd" clip-rule="evenodd" d="M28.3845 7.73547C22.8034 7.29883 17.1967 7.29883 11.6156 7.73547L7.88113 8.02764C5.61019 8.20531 3.75238 9.90731 3.37698 12.1541C2.50904 17.3487 2.50904 22.6513 3.37698 27.8459C3.75238 30.0927 5.61019 31.7947 7.88113 31.9724L11.6156 32.2645C17.1967 32.7012 22.8034 32.7012 28.3845 32.2645L32.119 31.9724C34.3899 31.7947 36.2477 30.0927 36.6231 27.8459C37.491 22.6513 37.491 17.3487 36.6231 12.1541C36.2477 9.90731 34.3899 8.20531 32.119 8.02764L28.3845 7.73547ZM11.8106 10.2279C17.2619 9.80137 22.7382 9.80137 28.1895 10.2279L31.924 10.52C33.05 10.6081 33.9712 11.452 34.1573 12.566C34.9797 17.4879 34.9797 22.5121 34.1573 27.4339C33.9712 28.548 33.05 29.3919 31.924 29.48L28.1895 29.7721C22.7382 30.1986 17.2619 30.1986 11.8106 29.7721L8.07613 29.48C6.95011 29.3919 6.02894 28.548 5.8428 27.4339C5.02044 22.5121 5.02044 17.4879 5.8428 12.566C6.02894 11.452 6.95011 10.6081 8.07613 10.52L11.8106 10.2279Z" fill="white"/>
</svg>
