<svg width="64" height="63" viewBox="0 0 64 63" fill="none" xmlns="http://www.w3.org/2000/svg">
<g clip-path="url(#clip0_6_120)">
<path fill-rule="evenodd" clip-rule="evenodd" d="M21.3333 10.5V12.6H6.4C4.70261 12.6 3.07475 13.2637 1.87452 14.4452C0.674284 15.6267 0 17.2291 0 18.9L0 56.7C0 58.3709 0.674284 59.9733 1.87452 61.1548C3.07475 62.3363 4.70261 63 6.4 63H57.6C59.2974 63 60.9253 62.3363 62.1255 61.1548C63.3257 59.9733 64 58.3709 64 56.7V18.9C64 17.2291 63.3257 15.6267 62.1255 14.4452C60.9253 13.2637 59.2974 12.6 57.6 12.6H42.6667V10.5C42.6667 7.71523 41.5429 5.04451 39.5425 3.07538C37.5421 1.10625 34.829 0 32 0C29.171 0 26.4579 1.10625 24.4575 3.07538C22.4571 5.04451 21.3333 7.71523 21.3333 10.5ZM32 4.2C30.3026 4.2 28.6747 4.86375 27.4745 6.04523C26.2743 7.22671 25.6 8.82914 25.6 10.5V12.6H38.4V10.5C38.4 8.82914 37.7257 7.22671 36.5255 6.04523C35.3253 4.86375 33.6974 4.2 32 4.2ZM2.816 30.9414C10.7633 38.1645 21.1832 42.1756 32 42.1756C42.8168 42.1756 53.2367 38.1645 61.184 30.9414L58.2827 27.8586C51.1243 34.3615 41.7408 37.9723 32 37.9723C22.2592 37.9723 12.8757 34.3615 5.71733 27.8586L2.816 30.9414Z" fill="white"/>
<path d="M11.744 53.448L9.524 57H8.264L10.664 53.256C10.36 53.152 10.072 53.008 9.8 52.824C9.536 52.64 9.32 52.388 9.152 52.068C8.984 51.748 8.9 51.336 8.9 50.832C8.9 50.056 9.168 49.464 9.704 49.056C10.24 48.64 11.04 48.432 12.104 48.432H14.504V57H13.424V53.448H11.744ZM12.128 49.356C11.672 49.356 11.288 49.408 10.976 49.512C10.664 49.616 10.424 49.78 10.256 50.004C10.096 50.228 10.016 50.52 10.016 50.88C10.016 51.408 10.192 51.816 10.544 52.104C10.896 52.392 11.44 52.536 12.176 52.536H13.424V49.356H12.128Z" fill="#0050EC"/>
<path d="M16.8281 57V48.432H21.9161V49.38H17.9081V52.056H19.1801C20.0361 52.056 20.7001 52.164 21.1721 52.38C21.6441 52.588 21.9721 52.876 22.1561 53.244C22.3401 53.604 22.4321 54.02 22.4321 54.492C22.4321 55.012 22.3281 55.46 22.1201 55.836C21.9201 56.212 21.5921 56.5 21.1361 56.7C20.6801 56.9 20.0801 57 19.3361 57H16.8281ZM19.2281 56.076C19.9961 56.076 20.5361 55.948 20.8481 55.692C21.1601 55.428 21.3161 55.028 21.3161 54.492C21.3161 54.124 21.2401 53.832 21.0881 53.616C20.9441 53.392 20.7041 53.232 20.3681 53.136C20.0401 53.04 19.6001 52.992 19.0481 52.992H17.9081V56.076H19.2281ZM24.2229 48.432H25.2309V53.136C25.2309 53.336 25.2269 53.556 25.2189 53.796C25.2189 54.028 25.2149 54.26 25.2069 54.492C25.1989 54.724 25.1869 54.932 25.1709 55.116C25.1629 55.292 25.1549 55.428 25.1469 55.524H25.1949L29.9109 48.432H31.1109V57H30.1029V52.344C30.1029 52.128 30.1069 51.896 30.1149 51.648C30.1229 51.392 30.1309 51.148 30.1389 50.916C30.1549 50.676 30.1669 50.464 30.1749 50.28C30.1829 50.096 30.1909 49.96 30.1989 49.872H30.1509L25.4229 57H24.2229V48.432ZM35.6898 48.432C36.8098 48.432 37.6258 48.652 38.1378 49.092C38.6498 49.532 38.9058 50.152 38.9058 50.952C38.9058 51.304 38.8458 51.644 38.7258 51.972C38.6138 52.292 38.4258 52.58 38.1618 52.836C37.8978 53.092 37.5458 53.296 37.1058 53.448C36.6658 53.592 36.1258 53.664 35.4858 53.664H34.5018V57H33.4218V48.432H35.6898ZM35.5938 49.356H34.5018V52.74H35.3658C35.9098 52.74 36.3618 52.684 36.7218 52.572C37.0818 52.452 37.3498 52.264 37.5258 52.008C37.7018 51.752 37.7898 51.416 37.7898 51C37.7898 50.448 37.6138 50.036 37.2618 49.764C36.9098 49.492 36.3538 49.356 35.5938 49.356ZM42.7451 52.596L39.4211 48.432H40.6211L43.8971 52.584V48.432H44.9291V52.584L48.2051 48.432H49.4051L46.0811 52.584L49.5131 57H48.2771L44.9291 52.656V57H43.8971V52.656L40.5371 57H39.3011L42.7451 52.596ZM56.0713 57L55.0393 54.348H51.6433L50.6233 57H49.5312L52.8793 48.396H53.8513L57.1873 57H56.0713ZM53.7553 50.796C53.7313 50.732 53.6913 50.616 53.6353 50.448C53.5793 50.28 53.5233 50.108 53.4673 49.932C53.4193 49.748 53.3793 49.608 53.3473 49.512C53.3073 49.672 53.2633 49.836 53.2153 50.004C53.1753 50.164 53.1313 50.312 53.0833 50.448C53.0433 50.584 53.0073 50.7 52.9753 50.796L52.0033 53.388H54.7153L53.7553 50.796Z" fill="#2C5972"/>
</g>
<defs>
<clipPath id="clip0_6_120">
<rect width="64" height="63" fill="white"/>
</clipPath>
</defs>
</svg>
